STARTFONT 2.1
COMMENT converted Oberon font (using FontToBDF by R.Crelier 10.1.91)
FONT Syntax24i.Scn.Fnt
SIZE 24 75 75
FONTBOUNDINGBOX  22 28 0 -7
STARTPROPERTIES 3
FONT_ASCENT 21
FONT_DESCENT 7
DEFAULT_CHAR 0
ENDPROPERTIES
CHARS 122
STARTCHAR c0
ENCODING -1 0
SWIDTH 0 0
DWIDTH 0 0
BBX 0 0 0 0
BITMAP
ENDCHAR
STARTCHAR c9
ENCODING -1 9
SWIDTH 645 0
DWIDTH 20 0
BBX 0 0 0 0
BITMAP
ENDCHAR
STARTCHAR c32
ENCODING -1 32
SWIDTH 161 0
DWIDTH 5 0
BBX 0 0 0 0
BITMAP
ENDCHAR
STARTCHAR c33
ENCODING -1 33
SWIDTH 225 0
DWIDTH 7 0
BBX 5 18 2 0
BITMAP
18
18
18
18
10
30
30
30
20
20
60
40
40
00
00
00
C0
C0
ENDCHAR
STARTCHAR c34
ENCODING -1 34
SWIDTH 290 0
DWIDTH 9 0
BBX 6 5 3 13
BITMAP
6C
6C
48
90
90
ENDCHAR
STARTCHAR c35
ENCODING -1 35
SWIDTH 451 0
DWIDTH 14 0
BBX 12 18 1 0
BITMAP
0420
0420
0420
0C60
0840
0840
7FF0
1080
1080
1080
1080
FFE0
2100
2100
6300
4200
4200
4200
ENDCHAR
STARTCHAR c36
ENCODING -1 36
SWIDTH 354 0
DWIDTH 11 0
BBX 11 22 0 -2
BITMAP
0100
0100
03E0
0D00
1A00
1200
3200
3200
3400
1C00
1C00
0700
0700
0580
0980
0980
0900
0B00
1600
F800
1000
1000
ENDCHAR
STARTCHAR c37
ENCODING -1 37
SWIDTH 516 0
DWIDTH 16 0
BBX 16 18 0 0
BITMAP
0F03
1182
2184
618C
6190
6130
6220
3C40
0080
0100
023C
0446
0C86
0986
3186
2184
4188
C0F0
ENDCHAR
STARTCHAR c38
ENCODING -1 38
SWIDTH 483 0
DWIDTH 15 0
BBX 13 18 0 0
BITMAP
01C0
0220
0620
0620
0640
06C0
0300
0700
1998
3198
60D0
40D0
C060
C060
C0B0
C0B0
6318
3C18
ENDCHAR
STARTCHAR c39
ENCODING -1 39
SWIDTH 161 0
DWIDTH 5 0
BBX 3 5 2 13
BITMAP
60
60
40
80
80
ENDCHAR
STARTCHAR c40
ENCODING -1 40
SWIDTH 290 0
DWIDTH 9 0
BBX 8 26 1 -6
BITMAP
01
02
04
08
10
10
20
20
60
40
40
C0
80
80
80
80
80
80
80
80
C0
40
40
40
20
20
ENDCHAR
STARTCHAR c41
ENCODING -1 41
SWIDTH 290 0
DWIDTH 9 0
BBX 8 26 0 -6
BITMAP
04
04
02
02
02
03
01
01
01
01
01
01
01
01
03
02
02
06
04
04
08
08
10
20
40
80
ENDCHAR
STARTCHAR c42
ENCODING -1 42
SWIDTH 451 0
DWIDTH 14 0
BBX 13 13 0 0
BITMAP
0810
0830
0C20
04C0
0480
0300
FFF8
0600
0900
1900
2180
6080
4080
ENDCHAR
STARTCHAR c43
ENCODING -1 43
SWIDTH 451 0
DWIDTH 14 0
BBX 13 13 0 0
BITMAP
0100
0100
0100
0300
0200
0200
FFF8
0200
0200
0600
0400
0400
0400
ENDCHAR
STARTCHAR c44
ENCODING -1 44
SWIDTH 161 0
DWIDTH 5 0
BBX 3 6 0 -4
BITMAP
60
60
40
C0
80
80
ENDCHAR
STARTCHAR c45
ENCODING -1 45
SWIDTH 451 0
DWIDTH 14 0
BBX 12 1 1 6
BITMAP
FFF0
ENDCHAR
STARTCHAR c46
ENCODING -1 46
SWIDTH 161 0
DWIDTH 5 0
BBX 2 2 1 0
BITMAP
C0
C0
ENDCHAR
STARTCHAR c47
ENCODING -1 47
SWIDTH 387 0
DWIDTH 12 0
BBX 12 18 0 0
BITMAP
0010
0030
0020
0040
00C0
0080
0100
0300
0200
0400
0C00
0800
1000
3000
2000
4000
C000
8000
ENDCHAR
STARTCHAR c48
ENCODING -1 48
SWIDTH 419 0
DWIDTH 13 0
BBX 12 18 0 0
BITMAP
03C0
0C60
0830
1030
3030
2030
6030
6030
6030
C060
C060
C060
C040
C0C0
C080
C100
6300
3C00
ENDCHAR
STARTCHAR c49
ENCODING -1 49
SWIDTH 419 0
DWIDTH 13 0
BBX 9 18 0 0
BITMAP
0180
0780
1980
3180
C300
0300
0300
0300
0300
0600
0600
0600
0600
0600
0C00
0C00
0C00
0C00
ENDCHAR
STARTCHAR c50
ENCODING -1 50
SWIDTH 419 0
DWIDTH 13 0
BBX 11 18 0 0
BITMAP
1F80
60C0
0060
0060
0060
0060
0060
00C0
00C0
0180
0300
0600
0C00
1800
3000
6000
C000
FFC0
ENDCHAR
STARTCHAR c51
ENCODING -1 51
SWIDTH 419 0
DWIDTH 13 0
BBX 11 18 0 0
BITMAP
0F80
30C0
0060
0060
0060
0040
00C0
0380
3C00
0300
0180
00C0
00C0
00C0
0080
0180
0700
FC00
ENDCHAR
STARTCHAR c52
ENCODING -1 52
SWIDTH 419 0
DWIDTH 13 0
BBX 12 18 0 0
BITMAP
0060
00E0
0160
0240
06C0
0CC0
18C0
30C0
6180
4180
8180
FFF0
0180
0180
0300
0300
0300
0300
ENDCHAR
STARTCHAR c53
ENCODING -1 53
SWIDTH 419 0
DWIDTH 13 0
BBX 12 18 0 0
BITMAP
1FF0
1800
3000
3000
3000
6000
7F00
61C0
00C0
0060
0060
0060
0060
00C0
00C0
0180
0600
F800
ENDCHAR
STARTCHAR c54
ENCODING -1 54
SWIDTH 419 0
DWIDTH 13 0
BBX 13 18 0 0
BITMAP
00F8
0300
0C00
1800
1000
3000
6000
6000
43C0
CCE0
D060
E060
E060
C060
C0C0
C080
6380
3E00
ENDCHAR
STARTCHAR c55
ENCODING -1 55
SWIDTH 419 0
DWIDTH 13 0
BBX 12 18 0 0
BITMAP
7FF0
0030
0060
00C0
00C0
0180
0300
0300
0600
0C00
0C00
1800
3000
3000
6000
6000
C000
C000
ENDCHAR
STARTCHAR c56
ENCODING -1 56
SWIDTH 419 0
DWIDTH 13 0
BBX 12 18 0 0
BITMAP
07E0
1C30
1810
3010
3010
3020
1860
1D80
0E00
0700
1B80
6180
40C0
80C0
80C0
8180
C380
7E00
ENDCHAR
STARTCHAR c57
ENCODING -1 57
SWIDTH 419 0
DWIDTH 13 0
BBX 12 18 0 0
BITMAP
07C0
1C60
1030
3030
6030
6070
6070
60B0
7330
3C20
0060
0060
00C0
0080
0180
0300
0C00
F000
ENDCHAR
STARTCHAR c58
ENCODING -1 58
SWIDTH 193 0
DWIDTH 6 0
BBX 4 12 1 0
BITMAP
30
30
00
00
00
00
00
00
00
00
C0
C0
ENDCHAR
STARTCHAR c59
ENCODING -1 59
SWIDTH 193 0
DWIDTH 6 0
BBX 5 16 0 -4
BITMAP
18
18
00
00
00
00
00
00
00
00
60
60
40
40
80
80
ENDCHAR
STARTCHAR c60
ENCODING -1 60
SWIDTH 451 0
DWIDTH 14 0
BBX 14 13 0 0
BITMAP
000C
0038
00E0
0380
0E00
3800
E000
3800
0C00
0700
0180
00E0
0030
ENDCHAR
STARTCHAR c61
ENCODING -1 61
SWIDTH 451 0
DWIDTH 14 0
BBX 14 5 0 4
BITMAP
7FFC
0000
0000
0000
FFF8
ENDCHAR
STARTCHAR c62
ENCODING -1 62
SWIDTH 451 0
DWIDTH 14 0
BBX 14 13 0 0
BITMAP
3000
1C00
0600
0380
00C0
0070
001C
0070
01C0
0700
1C00
7000
C000
ENDCHAR
STARTCHAR c63
ENCODING -1 63
SWIDTH 387 0
DWIDTH 12 0
BBX 9 18 2 0
BITMAP
3E00
C300
0180
0180
0180
0100
0300
0600
0C00
1800
3000
6000
6000
0000
0000
0000
C000
C000
ENDCHAR
STARTCHAR c64
ENCODING -1 64
SWIDTH 645 0
DWIDTH 20 0
BBX 18 19 1 -1
BITMAP
00FC00
030300
040080
180080
107840
209840
411840
431840
421040
863040
863080
843080
845100
84A100
872200
406C00
407000
300000
0F0000
ENDCHAR
STARTCHAR c65
ENCODING -1 65
SWIDTH 419 0
DWIDTH 13 0
BBX 11 18 0 0
BITMAP
0060
00E0
00E0
0160
0160
0260
0660
0460
0C60
0860
1FE0
3060
2060
6060
4060
C060
8060
8060
ENDCHAR
STARTCHAR c66
ENCODING -1 66
SWIDTH 419 0
DWIDTH 13 0
BBX 11 18 1 0
BITMAP
1F80
18C0
1860
1860
3060
30C0
30C0
3300
3E00
6180
60C0
60C0
60C0
60C0
C080
C180
C300
FC00
ENDCHAR
STARTCHAR c67
ENCODING -1 67
SWIDTH 419 0
DWIDTH 13 0
BBX 12 18 1 0
BITMAP
00F0
0380
0600
0C00
1800
3000
3000
6000
6000
6000
C000
C000
C000
C000
C000
C000
6180
3E00
ENDCHAR
STARTCHAR c68
ENCODING -1 68
SWIDTH 516 0
DWIDTH 16 0
BBX 14 18 1 0
BITMAP
1FE0
1838
1818
180C
300C
300C
300C
300C
3008
6018
6018
6010
6030
6020
C040
C0C0
C300
FC00
ENDCHAR
STARTCHAR c69
ENCODING -1 69
SWIDTH 387 0
DWIDTH 12 0
BBX 11 18 1 0
BITMAP
1FE0
1800
1800
1800
3000
3000
3000
3000
3FC0
6000
6000
6000
6000
6000
C000
C000
C000
FFC0
ENDCHAR
STARTCHAR c70
ENCODING -1 70
SWIDTH 354 0
DWIDTH 11 0
BBX 10 18 1 0
BITMAP
1FC0
1800
1800
1800
3000
3000
3000
3000
3F80
6000
6000
6000
6000
6000
C000
C000
C000
C000
ENDCHAR
STARTCHAR c71
ENCODING -1 71
SWIDTH 483 0
DWIDTH 15 0
BBX 13 18 1 0
BITMAP
00F8
0380
0600
0C00
1800
3000
3000
6000
6000
6030
C030
C030
C030
C060
C060
6060
70E0
1F00
ENDCHAR
STARTCHAR c72
ENCODING -1 72
SWIDTH 516 0
DWIDTH 16 0
BBX 14 18 1 0
BITMAP
180C
180C
180C
180C
3018
3018
3018
3018
3FF8
6030
6030
6030
6030
6030
C060
C060
C060
C060
ENDCHAR
STARTCHAR c73
ENCODING -1 73
SWIDTH 225 0
DWIDTH 7 0
BBX 5 18 1 0
BITMAP
18
18
18
18
30
30
30
30
30
60
60
60
60
60
C0
C0
C0
C0
ENDCHAR
STARTCHAR c74
ENCODING -1 74
SWIDTH 258 0
DWIDTH 8 0
BBX 7 18 0 0
BITMAP
06
06
06
06
0C
0C
0C
0C
0C
18
18
18
18
18
30
30
30
C0
ENDCHAR
STARTCHAR c75
ENCODING -1 75
SWIDTH 451 0
DWIDTH 14 0
BBX 13 18 1 0
BITMAP
1818
1818
1830
1820
30C0
3080
3300
3200
3C00
6600
6600
6300
6300
6180
C180
C180
C0C0
C0C0
ENDCHAR
STARTCHAR c76
ENCODING -1 76
SWIDTH 322 0
DWIDTH 10 0
BBX 8 18 1 0
BITMAP
18
18
18
18
30
30
30
30
30
60
60
60
60
60
C0
C0
C0
FF
ENDCHAR
STARTCHAR c77
ENCODING -1 77
SWIDTH 709 0
DWIDTH 22 0
BBX 20 18 0 0
BITMAP
00C030
00C030
01C070
01C070
02C0B0
02C1B0
06C130
04C330
0CC230
086630
186430
106C30
306830
206830
607030
407030
C06030
C06030
ENDCHAR
STARTCHAR c78
ENCODING -1 78
SWIDTH 548 0
DWIDTH 17 0
BBX 15 18 1 0
BITMAP
0C06
0C06
0C04
1604
160C
160C
1308
3308
3308
2198
2198
2190
60D0
60D0
40D0
4060
C060
C060
ENDCHAR
STARTCHAR c79
ENCODING -1 79
SWIDTH 548 0
DWIDTH 17 0
BBX 15 18 1 0
BITMAP
00F8
038C
0606
0C06
1806
3006
3006
6006
600C
600C
C00C
C018
C018
C030
C060
C0C0
6380
3E00
ENDCHAR
STARTCHAR c80
ENCODING -1 80
SWIDTH 387 0
DWIDTH 12 0
BBX 11 18 1 0
BITMAP
1F80
18C0
1860
1860
3060
30C0
30C0
3180
3E00
6000
6000
6000
6000
6000
C000
C000
C000
C000
ENDCHAR
STARTCHAR c81
ENCODING -1 81
SWIDTH 548 0
DWIDTH 17 0
BBX 15 21 1 -3
BITMAP
00F8
038C
0606
0C06
1806
3006
3006
6006
600C
600C
C00C
C018
C018
C030
C060
C0C0
6380
3E00
0780
01E0
0078
ENDCHAR
STARTCHAR c82
ENCODING -1 82
SWIDTH 419 0
DWIDTH 13 0
BBX 11 18 1 0
BITMAP
1F80
18C0
1860
1860
3060
30C0
30C0
3180
3E00
6600
6300
6300
6180
6180
C0C0
C0C0
C060
C060
ENDCHAR
STARTCHAR c83
ENCODING -1 83
SWIDTH 322 0
DWIDTH 10 0
BBX 10 18 0 0
BITMAP
07C0
1800
1000
3000
3000
3000
3000
1800
1C00
0E00
0600
0300
0300
0300
0300
0200
0600
F800
ENDCHAR
STARTCHAR c84
ENCODING -1 84
SWIDTH 354 0
DWIDTH 11 0
BBX 11 18 0 0
BITMAP
FFE0
0600
0600
0600
0C00
0C00
0C00
0C00
0C00
1800
1800
1800
1800
1800
3000
3000
3000
3000
ENDCHAR
STARTCHAR c85
ENCODING -1 85
SWIDTH 516 0
DWIDTH 16 0
BBX 14 18 1 0
BITMAP
180C
180C
180C
1808
3018
3018
3018
3010
6010
6030
6030
6020
C020
C060
C040
C0C0
6180
3E00
ENDCHAR
STARTCHAR c86
ENCODING -1 86
SWIDTH 419 0
DWIDTH 13 0
BBX 11 18 2 0
BITMAP
C020
C020
C060
C040
C0C0
C080
C180
C100
C200
C600
C400
CC00
C800
D000
D000
E000
E000
C000
ENDCHAR
STARTCHAR c87
ENCODING -1 87
SWIDTH 709 0
DWIDTH 22 0
BBX 20 18 2 0
BITMAP
C06010
C06010
C06030
C06020
C0E060
C0E040
C1E0C0
C16080
C26100
C66300
C46200
CC6600
C86400
D06800
D06800
E07000
E07000
C06000
ENDCHAR
STARTCHAR c88
ENCODING -1 88
SWIDTH 451 0
DWIDTH 14 0
BBX 14 18 0 0
BITMAP
0C04
0C04
0C0C
0C18
0610
0620
0660
0680
0380
0700
0580
1980
1180
2180
60C0
C0C0
80C0
80C0
ENDCHAR
STARTCHAR c89
ENCODING -1 89
SWIDTH 387 0
DWIDTH 12 0
BBX 11 18 1 0
BITMAP
C020
C020
C040
6040
6080
6180
3100
3200
3600
1C00
1800
1800
1800
3000
3000
3000
3000
3000
ENDCHAR
STARTCHAR c90
ENCODING -1 90
SWIDTH 354 0
DWIDTH 11 0
BBX 11 18 0 0
BITMAP
3FE0
0060
0060
00C0
00C0
0180
0300
0300
0600
0C00
0C00
1800
3000
3000
6000
C000
C000
FF80
ENDCHAR
STARTCHAR c91
ENCODING -1 91
SWIDTH 290 0
DWIDTH 9 0
BBX 9 24 0 -5
BITMAP
0F80
0800
0800
0800
1800
1000
1000
1000
1000
3000
2000
2000
2000
2000
6000
4000
4000
4000
4000
C000
8000
8000
8000
F800
ENDCHAR
STARTCHAR c92
ENCODING -1 92
SWIDTH 387 0
DWIDTH 12 0
BBX 4 18 4 0
BITMAP
C0
C0
C0
40
40
40
40
60
60
60
60
20
20
20
20
30
30
30
ENDCHAR
STARTCHAR c93
ENCODING -1 93
SWIDTH 290 0
DWIDTH 9 0
BBX 9 24 0 -5
BITMAP
0F80
0080
0080
0080
0180
0100
0100
0100
0100
0300
0200
0200
0200
0200
0600
0400
0400
0400
0400
0C00
0800
0800
0800
F800
ENDCHAR
STARTCHAR c94
ENCODING -1 94
SWIDTH 419 0
DWIDTH 13 0
BBX 10 14 1 0
BITMAP
0300
0300
0E80
1280
2240
C640
0400
0400
0400
0C00
0800
0800
0800
0800
ENDCHAR
STARTCHAR c95
ENCODING -1 95
SWIDTH 225 0
DWIDTH 7 0
BBX 7 1 0 -1
BITMAP
FE
ENDCHAR
STARTCHAR c96
ENCODING -1 96
SWIDTH 387 0
DWIDTH 12 0
BBX 3 5 5 14
BITMAP
C0
C0
40
20
20
ENDCHAR
STARTCHAR c97
ENCODING -1 97
SWIDTH 387 0
DWIDTH 12 0
BBX 11 13 0 0
BITMAP
0F80
30C0
00C0
00C0
00C0
0780
1980
6180
4180
C300
C300
C520
79C0
ENDCHAR
STARTCHAR c98
ENCODING -1 98
SWIDTH 419 0
DWIDTH 13 0
BBX 11 20 1 0
BITMAP
0C00
0C00
0C00
1800
1800
1800
1800
31C0
3260
2460
2860
3060
7060
6040
60C0
60C0
C180
C300
C600
F800
ENDCHAR
STARTCHAR c99
ENCODING -1 99
SWIDTH 322 0
DWIDTH 10 0
BBX 9 13 1 0
BITMAP
0780
1800
3000
6000
6000
4000
C000
C000
C000
C000
C000
6300
3C00
ENDCHAR
STARTCHAR c100
ENCODING -1 100
SWIDTH 419 0
DWIDTH 13 0
BBX 12 20 1 0
BITMAP
0030
0030
0030
0030
0060
0060
0060
03E0
0C60
1860
3060
60C0
60C0
40C0
C1C0
C180
C280
C480
C980
7180
ENDCHAR
STARTCHAR c101
ENCODING -1 101
SWIDTH 354 0
DWIDTH 11 0
BBX 10 13 1 0
BITMAP
0780
18C0
30C0
20C0
6180
7E00
C000
C000
C000
C000
C000
C300
7C00
ENDCHAR
STARTCHAR c102
ENCODING -1 102
SWIDTH 193 0
DWIDTH 6 0
BBX 6 27 0 -7
BITMAP
04
08
18
18
18
18
30
FC
30
30
30
30
30
30
60
60
60
60
60
C0
C0
C0
C0
C0
80
80
80
ENDCHAR
STARTCHAR c103
ENCODING -1 103
SWIDTH 387 0
DWIDTH 12 0
BBX 12 20 0 -7
BITMAP
0FF0
3880
30C0
60C0
60C0
6180
6380
3E00
1000
2000
6000
3C00
0F80
31C0
40C0
C0C0
C0C0
C080
6300
3C00
ENDCHAR
STARTCHAR c104
ENCODING -1 104
SWIDTH 419 0
DWIDTH 13 0
BBX 11 20 1 0
BITMAP
1800
1800
1800
1800
1800
3000
3000
31C0
3260
2460
6860
7060
60C0
60C0
60C0
60C0
C180
C180
C180
C180
ENDCHAR
STARTCHAR c105
ENCODING -1 105
SWIDTH 193 0
DWIDTH 6 0
BBX 5 18 1 0
BITMAP
18
18
00
00
00
30
30
30
30
60
60
60
60
60
C0
C0
C0
C0
ENDCHAR
STARTCHAR c106
ENCODING -1 106
SWIDTH 193 0
DWIDTH 6 0
BBX 6 25 0 -7
BITMAP
0C
0C
00
00
00
18
18
18
18
30
30
30
30
30
60
60
60
60
60
C0
C0
C0
80
80
80
ENDCHAR
STARTCHAR c107
ENCODING -1 107
SWIDTH 354 0
DWIDTH 11 0
BBX 10 20 1 0
BITMAP
1800
1800
1800
1800
1800
3000
3000
30C0
3080
3100
6200
6400
7800
6C00
6C00
C600
C600
C600
C300
C300
ENDCHAR
STARTCHAR c108
ENCODING -1 108
SWIDTH 193 0
DWIDTH 6 0
BBX 5 20 1 0
BITMAP
18
18
18
18
18
30
30
30
30
30
60
60
60
60
60
C0
C0
C0
C0
C0
ENDCHAR
STARTCHAR c109
ENCODING -1 109
SWIDTH 645 0
DWIDTH 20 0
BBX 18 13 1 0
BITMAP
31C380
3264C0
2468C0
2870C0
7060C0
60C180
60C180
60C180
60C180
C18300
C18300
C18300
C18300
ENDCHAR
STARTCHAR c110
ENCODING -1 110
SWIDTH 419 0
DWIDTH 13 0
BBX 11 13 1 0
BITMAP
31C0
3260
2460
2860
7060
60C0
60C0
60C0
60C0
C180
C180
C180
C180
ENDCHAR
STARTCHAR c111
ENCODING -1 111
SWIDTH 419 0
DWIDTH 13 0
BBX 11 13 1 0
BITMAP
0780
18C0
3060
6060
6060
4060
C060
C040
C0C0
C0C0
C180
6300
3C00
ENDCHAR
STARTCHAR c112
ENCODING -1 112
SWIDTH 419 0
DWIDTH 13 0
BBX 12 20 0 -7
BITMAP
18E0
1930
1230
1430
1830
3830
3020
3060
3060
60C0
6180
6300
7C00
6000
6000
6000
C000
C000
C000
C000
ENDCHAR
STARTCHAR c113
ENCODING -1 113
SWIDTH 419 0
DWIDTH 13 0
BBX 11 20 1 -7
BITMAP
03E0
0C60
1860
3060
60C0
60C0
40C0
C1C0
C180
C280
C480
C980
7180
0300
0300
0300
0300
0600
0600
0600
ENDCHAR
STARTCHAR c114
ENCODING -1 114
SWIDTH 258 0
DWIDTH 8 0
BBX 7 13 1 0
BITMAP
36
26
28
70
60
60
60
60
60
C0
C0
C0
C0
ENDCHAR
STARTCHAR c115
ENCODING -1 115
SWIDTH 258 0
DWIDTH 8 0
BBX 8 13 0 0
BITMAP
07
18
30
30
30
38
18
1C
0C
0C
0C
18
E0
ENDCHAR
STARTCHAR c116
ENCODING -1 116
SWIDTH 258 0
DWIDTH 8 0
BBX 7 18 1 0
BITMAP
18
18
18
30
30
FE
30
30
60
60
60
60
60
C0
C0
C4
C8
70
ENDCHAR
STARTCHAR c117
ENCODING -1 117
SWIDTH 419 0
DWIDTH 13 0
BBX 11 13 1 0
BITMAP
3060
3060
3060
3060
60C0
60C0
60C0
60C0
C1C0
C280
C480
C980
7180
ENDCHAR
STARTCHAR c118
ENCODING -1 118
SWIDTH 354 0
DWIDTH 11 0
BBX 9 13 2 0
BITMAP
C180
C180
C100
C300
C200
C600
C400
C800
C800
D000
E000
E000
C000
ENDCHAR
STARTCHAR c119
ENCODING -1 119
SWIDTH 612 0
DWIDTH 19 0
BBX 17 13 2 0
BITMAP
C0C180
C0C180
C1C100
C3C300
C2C200
C6C600
C4C400
C8C800
C8C800
D0D000
E0E000
E0E000
C0C000
ENDCHAR
STARTCHAR c120
ENCODING -1 120
SWIDTH 322 0
DWIDTH 10 0
BBX 10 13 0 0
BITMAP
3040
30C0
1880
1900
1A00
0C00
0C00
0C00
1600
2600
4600
C300
8300
ENDCHAR
STARTCHAR c121
ENCODING -1 121
SWIDTH 354 0
DWIDTH 11 0
BBX 11 20 0 -7
BITMAP
3060
3060
3040
30C0
3080
3180
3100
3200
3200
3400
3800
3800
3000
2000
2000
4000
4000
C000
8000
8000
ENDCHAR
STARTCHAR c122
ENCODING -1 122
SWIDTH 322 0
DWIDTH 10 0
BBX 10 13 0 0
BITMAP
3FC0
00C0
0180
0300
0300
0600
0C00
1800
1800
3000
6000
C000
FF80
ENDCHAR
STARTCHAR c123
ENCODING -1 123
SWIDTH 290 0
DWIDTH 9 0
BBX 9 24 0 -5
BITMAP
0380
0600
0400
0400
0400
0C00
0800
0800
0800
1800
3000
C000
3000
1000
1000
3000
2000
2000
2000
6000
4000
4000
4000
3800
ENDCHAR
STARTCHAR c124
ENCODING -1 124
SWIDTH 354 0
DWIDTH 11 0
BBX 7 23 2 -4
BITMAP
06
04
04
04
0C
08
08
08
08
18
10
10
10
30
20
20
20
20
60
40
40
40
C0
ENDCHAR
STARTCHAR c125
ENCODING -1 125
SWIDTH 290 0
DWIDTH 9 0
BBX 9 24 0 -5
BITMAP
0E00
0100
0100
0100
0300
0200
0200
0200
0600
0400
0400
0600
0180
0600
0C00
0800
0800
0800
1800
1000
1000
1000
3000
E000
ENDCHAR
STARTCHAR c126
ENCODING -1 126
SWIDTH 516 0
DWIDTH 16 0
BBX 16 5 0 4
BITMAP
1E01
2302
4182
40C4
8078
ENDCHAR
STARTCHAR c128
ENCODING -1 128
SWIDTH 419 0
DWIDTH 13 0
BBX 13 21 0 0
BITMAP
0318
0318
0000
0060
00E0
00E0
0160
0160
0260
0660
0460
0C60
0860
1FE0
3060
2060
6060
4060
C060
8060
8060
ENDCHAR
STARTCHAR c129
ENCODING -1 129
SWIDTH 548 0
DWIDTH 17 0
BBX 15 21 1 0
BITMAP
0186
0186
0000
00F8
038C
0606
0C06
1806
3006
3006
6006
600C
600C
C00C
C018
C018
C030
C060
C0C0
6380
3E00
ENDCHAR
STARTCHAR c130
ENCODING -1 130
SWIDTH 516 0
DWIDTH 16 0
BBX 14 21 1 0
BITMAP
0330
0330
0000
180C
180C
180C
1808
3018
3018
3018
3010
6010
6030
6030
6020
C020
C060
C040
C0C0
6180
3E00
ENDCHAR
STARTCHAR c131
ENCODING -1 131
SWIDTH 387 0
DWIDTH 12 0
BBX 11 18 0 0
BITMAP
0C60
0C60
0000
0000
0000
0F80
30C0
00C0
00C0
00C0
0780
1980
6180
4180
C300
C300
C520
79C0
ENDCHAR
STARTCHAR c132
ENCODING -1 132
SWIDTH 419 0
DWIDTH 13 0
BBX 12 18 1 0
BITMAP
0630
0630
0000
0000
0000
0780
18C0
3060
6060
6060
4060
C060
C040
C0C0
C0C0
C180
6300
3C00
ENDCHAR
STARTCHAR c133
ENCODING -1 133
SWIDTH 419 0
DWIDTH 13 0
BBX 11 18 1 0
BITMAP
0C60
0C60
0000
0000
0000
3060
3060
3060
3060
60C0
60C0
60C0
60C0
C1C0
C280
C480
C980
7180
ENDCHAR
STARTCHAR c134
ENCODING -1 134
SWIDTH 387 0
DWIDTH 12 0
BBX 11 20 0 0
BITMAP
0180
0380
04C0
08C0
1040
0000
0000
0F80
30C0
00C0
00C0
00C0
0780
1980
6180
4180
C300
C300
C520
79C0
ENDCHAR
STARTCHAR c135
ENCODING -1 135
SWIDTH 354 0
DWIDTH 11 0
BBX 10 20 1 0
BITMAP
0180
0380
04C0
08C0
1040
0000
0000
0780
18C0
30C0
20C0
6180
7E00
C000
C000
C000
C000
C000
6300
3C00
ENDCHAR
STARTCHAR c136
ENCODING -1 136
SWIDTH 193 0
DWIDTH 6 0
BBX 5 20 1 0
BITMAP
08
18
28
48
88
00
00
30
30
30
30
60
60
60
60
60
C0
C0
C0
C0
ENDCHAR
STARTCHAR c137
ENCODING -1 137
SWIDTH 419 0
DWIDTH 13 0
BBX 11 20 1 0
BITMAP
00C0
01C0
0260
0460
0820
0000
0000
0780
18C0
3060
6060
6060
4060
C060
C040
C0C0
C0C0
C180
6300
3C00
ENDCHAR
STARTCHAR c138
ENCODING -1 138
SWIDTH 419 0
DWIDTH 13 0
BBX 11 20 1 0
BITMAP
00C0
01C0
0260
0460
0820
0000
0000
3060
3060
3060
3060
60C0
60C0
60C0
60C0
C1C0
C280
C480
C980
7180
ENDCHAR
STARTCHAR c139
ENCODING -1 139
SWIDTH 387 0
DWIDTH 12 0
BBX 11 19 0 0
BITMAP
0600
0600
0200
0100
0100
0000
0F80
30C0
00C0
00C0
00C0
0780
1980
6180
4180
C300
C300
C520
79C0
ENDCHAR
STARTCHAR c140
ENCODING -1 140
SWIDTH 354 0
DWIDTH 11 0
BBX 10 19 1 0
BITMAP
0600
0600
0200
0100
0100
0000
0780
18C0
30C0
20C0
6180
7E00
C000
C000
C000
C000
C000
6300
3C00
ENDCHAR
STARTCHAR c141
ENCODING -1 141
SWIDTH 193 0
DWIDTH 6 0
BBX 5 19 1 0
BITMAP
30
30
10
08
08
00
30
30
30
30
60
60
60
60
60
C0
C0
C0
C0
ENDCHAR
STARTCHAR c142
ENCODING -1 142
SWIDTH 419 0
DWIDTH 13 0
BBX 11 19 1 0
BITMAP
0300
0300
0100
0080
0080
0000
0780
18C0
3060
6060
6060
4060
C060
C040
C0C0
C0C0
C180
6300
3C00
ENDCHAR
STARTCHAR c143
ENCODING -1 143
SWIDTH 483 0
DWIDTH 15 0
BBX 12 19 1 0
BITMAP
0300
0300
0100
0080
0080
0000
3030
3030
3030
3030
6060
6060
6060
6060
C0C0
C140
C240
C4C0
78C0
ENDCHAR
STARTCHAR c144
ENCODING -1 144
SWIDTH 354 0
DWIDTH 11 0
BBX 10 19 1 0
BITMAP
00C0
01C0
0300
0400
0000
0000
0780
18C0
30C0
20C0
6180
7E00
C000
C000
C000
C000
C000
6300
3C00
ENDCHAR
STARTCHAR c145
ENCODING -1 145
SWIDTH 354 0
DWIDTH 11 0
BBX 10 18 1 0
BITMAP
0CC0
0CC0
0000
0000
0000
0780
18C0
30C0
20C0
6180
7E00
C000
C000
C000
C000
C000
6300
3C00
ENDCHAR
STARTCHAR c146
ENCODING -1 146
SWIDTH 193 0
DWIDTH 6 0
BBX 5 18 1 0
BITMAP
48
48
00
00
00
30
30
30
30
60
60
60
60
60
C0
C0
C0
C0
ENDCHAR
STARTCHAR c147
ENCODING -1 147
SWIDTH 322 0
DWIDTH 10 0
BBX 9 18 1 -5
BITMAP
0780
1800
3000
6000
6000
4000
C000
C000
C000
C000
C000
6300
3C00
0000
3800
1800
1000
2000
ENDCHAR
STARTCHAR c148
ENCODING -1 148
SWIDTH 387 0
DWIDTH 12 0
BBX 11 19 0 0
BITMAP
0060
00E0
0180
0200
0000
0000
0F80
30C0
00C0
00C0
00C0
0780
1980
6180
4180
C300
C300
C520
79C0
ENDCHAR
STARTCHAR c149
ENCODING -1 149
SWIDTH 419 0
DWIDTH 13 0
BBX 12 19 1 0
BITMAP
0310
05A0
08C0
0000
0000
0000
31C0
3260
2460
2860
7060
60C0
60C0
60C0
60C0
C180
C180
C180
C180
ENDCHAR
STARTCHAR c155
ENCODING -1 155
SWIDTH 419 0
DWIDTH 13 0
BBX 13 1 0 6
BITMAP
FFF8
ENDCHAR
STARTCHAR c159
ENCODING -1 159
SWIDTH 419 0
DWIDTH 13 0
BBX 0 0 0 0
BITMAP
ENDCHAR
STARTCHAR c171
ENCODING -1 171
SWIDTH 419 0
DWIDTH 13 0
BBX 13 27 0 -7
BITMAP
01F0
0318
0618
0C18
0C10
0820
18C0
1880
1980
1980
1180
30C0
3060
3060
3030
2030
6030
6020
60E0
6780
4000
C000
C000
C000
8000
8000
8000
ENDCHAR
ENDFONT
